<svg xmlns="http://www.w3.org/2000/svg" version="1.1" xmlns:xlink="http://www.w3.org/1999/xlink" xmlns:svgjs="http://svgjs.dev/svgjs" width="1000" height="244" viewBox="0 0 1000 244"><g transform="matrix(1,0,0,1,-0.6060606060606233,0.32758631609310385)"><svg viewBox="0 0 396 97" data-background-color="#000000" preserveAspectRatio="xMidYMid meet" height="244" width="1000" xmlns="http://www.w3.org/2000/svg" xmlns:xlink="http://www.w3.org/1999/xlink"><defs></defs><g id="tight-bounds" transform="matrix(1,0,0,1,0.2400000000000091,-0.1302289863157)"><svg viewBox="0 0 395.52 97.26045797263141" height="97.26045797263141" width="395.52"><g><svg viewBox="0 0 542.6818251804751 133.44832840431965" height="97.26045797263141" width="395.52"><g transform="matrix(1,0,0,1,147.16182518047515,37.67949897537797)"><svg viewBox="0 0 395.52 58.08933045356371" height="58.08933045356371" width="395.52"><g><svg viewBox="0 0 395.52 58.08933045356371" height="58.08933045356371" width="395.52"><g><svg viewBox="0 0 395.52 58.08933045356371" height="58.08933045356371" width="395.52"><g transform="matrix(1,0,0,1,0,0)"><svg width="395.52" viewBox="2.88 -36.04 248.66 36.53" height="58.08933045356371" data-palette-color="#ffc800"><path d="M18.97 0L13.62-12.99 10.06-12.99 10.06 0 2.88 0 2.88-35.55 14.33-35.55Q19.73-35.55 22.67-32.75 25.61-29.96 25.61-24.8L25.61-24.8Q25.61-17.72 20.46-14.89L20.46-14.89 26.68-0.34 26.68 0 18.97 0ZM10.06-29.57L10.06-18.97 14.14-18.97Q16.28-18.97 17.36-20.4 18.43-21.83 18.43-24.22L18.43-24.22Q18.43-29.57 14.26-29.57L14.26-29.57 10.06-29.57ZM48.9-21.17L48.9-15.38 37.72-15.38 37.72-5.96 50.95-5.96 50.95 0 30.54 0 30.54-35.55 50.9-35.55 50.9-29.57 37.72-29.57 37.72-21.17 48.9-21.17ZM70.09-9.33L70.09-9.33Q70.09-11.5 68.98-12.61 67.87-13.72 64.94-14.92L64.94-14.92Q59.59-16.94 57.25-19.67 54.9-22.39 54.9-26.1L54.9-26.1Q54.9-30.59 58.09-33.31 61.27-36.04 66.18-36.04L66.18-36.04Q69.45-36.04 72.02-34.66 74.58-33.28 75.96-30.76 77.34-28.25 77.34-25.05L77.34-25.05 70.19-25.05Q70.19-27.54 69.12-28.85 68.06-30.15 66.06-30.15L66.06-30.15Q64.18-30.15 63.13-29.04 62.08-27.93 62.08-26.05L62.08-26.05Q62.08-24.58 63.25-23.4 64.42-22.22 67.4-20.95L67.4-20.95Q72.6-19.07 74.96-16.33 77.31-13.6 77.31-9.38L77.31-9.38Q77.31-4.74 74.36-2.12 71.41 0.49 66.33 0.49L66.33 0.49Q62.89 0.49 60.05-0.93 57.22-2.34 55.62-4.98 54.02-7.62 54.02-11.21L54.02-11.21 61.23-11.21Q61.23-8.13 62.42-6.74 63.62-5.35 66.33-5.35L66.33-5.35Q70.09-5.35 70.09-9.33ZM100.43-21.17L100.43-15.38 89.25-15.38 89.25-5.96 102.48-5.96 102.48 0 82.07 0 82.07-35.55 102.43-35.55 102.43-29.57 89.25-29.57 89.25-21.17 100.43-21.17ZM122.72 0L117.37-12.99 113.81-12.99 113.81 0 106.63 0 106.63-35.55 118.08-35.55Q123.48-35.55 126.42-32.75 129.36-29.96 129.36-24.8L129.36-24.8Q129.36-17.72 124.21-14.89L124.21-14.89 130.43-0.34 130.43 0 122.72 0ZM113.81-29.57L113.81-18.97 117.89-18.97Q120.03-18.97 121.11-20.4 122.18-21.83 122.18-24.22L122.18-24.22Q122.18-29.57 118.01-29.57L118.01-29.57 113.81-29.57ZM139.44-35.55L145.4-9.77 151.38-35.55 159.39-35.55 149.13 0 141.66 0 131.48-35.55 139.44-35.55ZM170.98-18.12L170.98-12.35 159.04-12.35 159.04-18.12 170.98-18.12ZM195.42-21.17L195.42-15.38 184.24-15.38 184.24-5.96 197.47-5.96 197.47 0 177.06 0 177.06-35.55 197.42-35.55 197.42-29.57 184.24-29.57 184.24-21.17 195.42-21.17ZM220.46 0L218.56-7.28 208.77-7.28 206.86 0 199.27 0 210.38-35.55 216.95-35.55 228.13 0 220.46 0ZM213.65-25.93L210.33-13.26 216.97-13.26 213.65-25.93ZM251.54-35.55L251.54-29.57 242.75-29.57 242.75 0 235.55 0 235.55-29.57 226.91-29.57 226.91-35.55 251.54-35.55Z" opacity="1" transform="matrix(1,0,0,1,0,0)" fill="#ffc800" class="undefined-text-0" data-fill-palette-color="primary" id="text-0"></path></svg></g></svg></g></svg></g></svg></g><g><svg viewBox="0 0 133.44832840431965 133.44832840431965" height="133.44832840431965" width="133.44832840431965"><g><svg></svg></g><g id="icon-0"><svg viewBox="0 0 133.44832840431965 133.44832840431965" height="133.44832840431965" width="133.44832840431965"><g><rect width="121.33912823429806" height="121.33912823429806" x="6.054600085010797" y="6.054600085010797" fill="#f7d65a" data-fill-palette-color="accent"></rect><rect width="121.33912823429806" height="121.33912823429806" x="12.109200170021596" y="-1.7763568394002505e-15" fill="#f7d65a" opacity="0.5" data-fill-palette-color="accent"></rect></g><g transform="matrix(1,0,0,1,17.298857385745137,17.300383240057826)"><svg viewBox="0 0 98.85061363282938 98.847561924204" height="98.847561924204" width="98.85061363282938"><g><svg xmlns="http://www.w3.org/2000/svg" data-name="Layer 1" viewBox="1.9981899730270969 2 60.001852372622636 60" x="0" y="0" height="98.847561924204" width="98.85061363282938" class="icon-fi-0" data-fill-palette-color="background" id="fi-0"><path d="M32 35.56a1 1 0 0 0-0.984 0.826c-0.79 4.471-1.159 4.84-5.63 5.63a1 1 0 0 0 0 1.968c4.471 0.79 4.84 1.159 5.63 5.63a1 1 0 0 0 1.968 0c0.79-4.471 1.159-4.84 5.63-5.63a1 1 0 0 0 0-1.968c-4.471-0.79-4.84-1.159-5.63-5.63A1 1 0 0 0 32 35.56ZM34.522 43A4.565 4.565 0 0 0 32 45.522 4.565 4.565 0 0 0 29.478 43 4.565 4.565 0 0 0 32 40.478 4.565 4.565 0 0 0 34.522 43Z" fill="#000000" data-fill-palette-color="background"></path><path d="M9.368 61a1 1 0 0 0 1 1H23a1 1 0 0 0 1-1V53a1 1 0 0 0-1-1h-0.053V50a11.011 11.011 0 0 0-4.258-8.657L17.227 38.45a2.662 2.662 0 0 0-4.428-0.476 2.609 2.609 0 0 0-0.54 2.176l0.616 3.048a1.069 1.069 0 0 0 0.088 0.253l0.113 0.224a15.86 15.86 0 0 1-4.633-8.793l-0.4-2.36a3.044 3.044 0 0 0-6.023 0.874L2.6 37.977A24.675 24.675 0 0 0 9.639 52.325 0.991 0.991 0 0 0 9.368 53ZM22 54v6H11.368V54H22ZM4.588 37.726l-0.58-4.58a1 1 0 0 1 0.245-0.792 1.052 1.052 0 0 1 1.82 0.5l0.4 2.36a17.92 17.92 0 0 0 8.915 12.657 1 1 0 0 0 1.385-1.322l-1.962-3.88-0.589-2.916a0.609 0.609 0 0 1 0.128-0.514 0.661 0.661 0 0 1 1.094 0.115l1.567 3.1a1 1 0 0 0 0.3 0.353A9 9 0 0 1 20.947 50v2H12.2A22.708 22.708 0 0 1 4.588 37.726Z" fill="#000000" data-fill-palette-color="background"></path><path d="M61.977 33.4a3.012 3.012 0 0 0-0.73-2.364 3.052 3.052 0 0 0-5.293 1.49l-0.4 2.36a15.86 15.86 0 0 1-4.633 8.793l0.113-0.224a1.069 1.069 0 0 0 0.088-0.253l0.616-3.047a2.61 2.61 0 0 0-0.54-2.177 2.662 2.662 0 0 0-4.429 0.477l-1.461 2.892A11.011 11.011 0 0 0 41.053 50v2H41a1 1 0 0 0-1 1v8a1 1 0 0 0 1 1H53.632a1 1 0 0 0 1-1V53a0.991 0.991 0 0 0-0.271-0.675A24.675 24.675 0 0 0 61.4 37.978ZM52.632 60H42V54H52.632Zm6.78-22.273A22.708 22.708 0 0 1 51.8 52H43.053V50a9 9 0 0 1 3.641-7.2 1 1 0 0 0 0.3-0.353l1.566-3.1a0.662 0.662 0 0 1 1.095-0.115 0.61 0.61 0 0 1 0.128 0.515l-0.589 2.915-1.962 3.88a1 1 0 0 0 1.385 1.322 17.92 17.92 0 0 0 8.915-12.657l0.4-2.36a1.052 1.052 0 0 1 1.82-0.5 1 1 0 0 1 0.245 0.791Z" fill="#000000" data-fill-palette-color="background"></path><path d="M15.168 24.445l-4 6A1 1 0 0 0 12 32H28a1 1 0 0 0 0.832-1.555l-4-6A1 1 0 0 0 24 24H16A1 1 0 0 0 15.168 24.445ZM23.465 26l2.667 4H13.868l2.667-4Z" fill="#000000" data-fill-palette-color="background"></path><path d="M48.832 24.445A1 1 0 0 0 48 24H40a1 1 0 0 0-0.832 0.445l-4 6A1 1 0 0 0 36 32H52a1 1 0 0 0 0.832-1.555ZM37.868 30l2.667-4h6.93l2.667 4Z" fill="#000000" data-fill-palette-color="background"></path><path d="M27.168 14.445l-4 6A1 1 0 0 0 24 22H40a1 1 0 0 0 0.832-1.555l-4-6A1 1 0 0 0 36 14H28A1 1 0 0 0 27.168 14.445ZM35.465 16l2.667 4H25.868l2.667-4Z" fill="#000000" data-fill-palette-color="background"></path><path d="M53 11h2a7.009 7.009 0 0 1 7-7V2A9.01 9.01 0 0 0 53 11Z" fill="#000000" data-fill-palette-color="background"></path><path d="M9 11h2A9.01 9.01 0 0 0 2 2V4A7.009 7.009 0 0 1 9 11Z" fill="#000000" data-fill-palette-color="background"></path><rect x="31" y="4" width="2" height="8" fill="#000000" data-fill-palette-color="background"></rect><rect x="40.828" y="9.171" width="8.001" height="2" transform="translate(5.938 34.678) rotate(-45)" fill="#000000" data-fill-palette-color="background"></rect><rect x="18.829" y="6.171" width="2" height="8.001" transform="translate(-1.385 17) rotate(-45)" fill="#000000" data-fill-palette-color="background"></rect></svg></g></svg></g></svg></g></svg></g></svg></g></svg><rect width="395.52" height="97.26045797263141" fill="none" stroke="none" visibility="hidden"></rect></g></svg></g></svg>